<mxfile host="app.diagrams.net" modified="2020-08-26T05:24:51.052Z" agent="5.0 (Windows)" etag="n_JnERky9F7sclC1rXZM" version="13.6.5" type="github">
  <diagram id="FH4WTuWQGk1v-3Q0YSTI" name="Page-1">
    <mxGraphModel dx="813" dy="452" grid="1" gridSize="10" guides="1" tooltips="1" connect="1" arrows="1" fold="1" page="1" pageScale="1" pageWidth="850" pageHeight="1100" math="0" shadow="0">
      <root>
        <mxCell id="0" />
        <mxCell id="1" parent="0" />
        <mxCell id="AnPcZyOYb4saUx2NXNW8-1" value="" style="shape=table;html=1;whiteSpace=wrap;startSize=0;container=1;collapsible=0;childLayout=tableLayout;" vertex="1" parent="1">
          <mxGeometry x="270" y="380" width="240" height="120" as="geometry" />
        </mxCell>
        <mxCell id="AnPcZyOYb4saUx2NXNW8-2" value="" style="shape=partialRectangle;html=1;whiteSpace=wrap;collapsible=0;dropTarget=0;pointerEvents=0;fillColor=none;top=0;left=0;bottom=0;right=0;points=[[0,0.5],[1,0.5]];portConstraint=eastwest;" vertex="1" parent="AnPcZyOYb4saUx2NXNW8-1">
          <mxGeometry width="240" height="40" as="geometry" />
        </mxCell>
        <mxCell id="AnPcZyOYb4saUx2NXNW8-3" value="1, 1" style="shape=partialRectangle;html=1;whiteSpace=wrap;connectable=0;overflow=hidden;fillColor=none;top=0;left=0;bottom=0;right=0;" vertex="1" parent="AnPcZyOYb4saUx2NXNW8-2">
          <mxGeometry width="60" height="40" as="geometry" />
        </mxCell>
        <mxCell id="AnPcZyOYb4saUx2NXNW8-4" value="1, 2" style="shape=partialRectangle;html=1;whiteSpace=wrap;connectable=0;overflow=hidden;fillColor=none;top=0;left=0;bottom=0;right=0;" vertex="1" parent="AnPcZyOYb4saUx2NXNW8-2">
          <mxGeometry x="60" width="60" height="40" as="geometry" />
        </mxCell>
        <mxCell id="AnPcZyOYb4saUx2NXNW8-5" value="1, 3" style="shape=partialRectangle;html=1;whiteSpace=wrap;connectable=0;overflow=hidden;fillColor=none;top=0;left=0;bottom=0;right=0;" vertex="1" parent="AnPcZyOYb4saUx2NXNW8-2">
          <mxGeometry x="120" width="60" height="40" as="geometry" />
        </mxCell>
        <mxCell id="AnPcZyOYb4saUx2NXNW8-6" value="1, ..." style="shape=partialRectangle;html=1;whiteSpace=wrap;connectable=0;overflow=hidden;fillColor=none;top=0;left=0;bottom=0;right=0;" vertex="1" parent="AnPcZyOYb4saUx2NXNW8-2">
          <mxGeometry x="180" width="60" height="40" as="geometry" />
        </mxCell>
        <mxCell id="AnPcZyOYb4saUx2NXNW8-7" value="" style="shape=partialRectangle;html=1;whiteSpace=wrap;collapsible=0;dropTarget=0;pointerEvents=0;fillColor=none;top=0;left=0;bottom=0;right=0;points=[[0,0.5],[1,0.5]];portConstraint=eastwest;" vertex="1" parent="AnPcZyOYb4saUx2NXNW8-1">
          <mxGeometry y="40" width="240" height="40" as="geometry" />
        </mxCell>
        <mxCell id="AnPcZyOYb4saUx2NXNW8-8" value="2, 1" style="shape=partialRectangle;html=1;whiteSpace=wrap;connectable=0;overflow=hidden;fillColor=none;top=0;left=0;bottom=0;right=0;" vertex="1" parent="AnPcZyOYb4saUx2NXNW8-7">
          <mxGeometry width="60" height="40" as="geometry" />
        </mxCell>
        <mxCell id="AnPcZyOYb4saUx2NXNW8-9" value="2, 2" style="shape=partialRectangle;html=1;whiteSpace=wrap;connectable=0;overflow=hidden;fillColor=none;top=0;left=0;bottom=0;right=0;" vertex="1" parent="AnPcZyOYb4saUx2NXNW8-7">
          <mxGeometry x="60" width="60" height="40" as="geometry" />
        </mxCell>
        <mxCell id="AnPcZyOYb4saUx2NXNW8-10" value="2, 3" style="shape=partialRectangle;html=1;whiteSpace=wrap;connectable=0;overflow=hidden;fillColor=none;top=0;left=0;bottom=0;right=0;" vertex="1" parent="AnPcZyOYb4saUx2NXNW8-7">
          <mxGeometry x="120" width="60" height="40" as="geometry" />
        </mxCell>
        <mxCell id="AnPcZyOYb4saUx2NXNW8-11" value="2, ..." style="shape=partialRectangle;html=1;whiteSpace=wrap;connectable=0;overflow=hidden;fillColor=none;top=0;left=0;bottom=0;right=0;" vertex="1" parent="AnPcZyOYb4saUx2NXNW8-7">
          <mxGeometry x="180" width="60" height="40" as="geometry" />
        </mxCell>
        <mxCell id="AnPcZyOYb4saUx2NXNW8-12" value="" style="shape=partialRectangle;html=1;whiteSpace=wrap;collapsible=0;dropTarget=0;pointerEvents=0;fillColor=none;top=0;left=0;bottom=0;right=0;points=[[0,0.5],[1,0.5]];portConstraint=eastwest;" vertex="1" parent="AnPcZyOYb4saUx2NXNW8-1">
          <mxGeometry y="80" width="240" height="40" as="geometry" />
        </mxCell>
        <mxCell id="AnPcZyOYb4saUx2NXNW8-13" value="..., 1" style="shape=partialRectangle;html=1;whiteSpace=wrap;connectable=0;overflow=hidden;fillColor=none;top=0;left=0;bottom=0;right=0;" vertex="1" parent="AnPcZyOYb4saUx2NXNW8-12">
          <mxGeometry width="60" height="40" as="geometry" />
        </mxCell>
        <mxCell id="AnPcZyOYb4saUx2NXNW8-14" value="..., 2" style="shape=partialRectangle;html=1;whiteSpace=wrap;connectable=0;overflow=hidden;fillColor=none;top=0;left=0;bottom=0;right=0;" vertex="1" parent="AnPcZyOYb4saUx2NXNW8-12">
          <mxGeometry x="60" width="60" height="40" as="geometry" />
        </mxCell>
        <mxCell id="AnPcZyOYb4saUx2NXNW8-15" value="..., 3" style="shape=partialRectangle;html=1;whiteSpace=wrap;connectable=0;overflow=hidden;fillColor=none;top=0;left=0;bottom=0;right=0;" vertex="1" parent="AnPcZyOYb4saUx2NXNW8-12">
          <mxGeometry x="120" width="60" height="40" as="geometry" />
        </mxCell>
        <mxCell id="AnPcZyOYb4saUx2NXNW8-16" value="..., ..." style="shape=partialRectangle;html=1;whiteSpace=wrap;connectable=0;overflow=hidden;fillColor=none;top=0;left=0;bottom=0;right=0;" vertex="1" parent="AnPcZyOYb4saUx2NXNW8-12">
          <mxGeometry x="180" width="60" height="40" as="geometry" />
        </mxCell>
        <mxCell id="AnPcZyOYb4saUx2NXNW8-17" value="column 1" style="text;html=1;strokeColor=none;fillColor=none;align=center;verticalAlign=middle;whiteSpace=wrap;rounded=0;fontFamily=Comic Sans MS;" vertex="1" parent="1">
          <mxGeometry x="270" y="359" width="50" height="20" as="geometry" />
        </mxCell>
        <mxCell id="AnPcZyOYb4saUx2NXNW8-18" value="column 1" style="text;html=1;strokeColor=none;fillColor=none;align=center;verticalAlign=middle;whiteSpace=wrap;rounded=0;fontFamily=Comic Sans MS;" vertex="1" parent="1">
          <mxGeometry x="270" y="359" width="50" height="20" as="geometry" />
        </mxCell>
        <mxCell id="AnPcZyOYb4saUx2NXNW8-19" value="row 1" style="text;html=1;strokeColor=none;fillColor=none;align=left;verticalAlign=middle;whiteSpace=wrap;rounded=0;fontFamily=Comic Sans MS;" vertex="1" parent="1">
          <mxGeometry x="230" y="374" width="40" height="20" as="geometry" />
        </mxCell>
        <mxCell id="AnPcZyOYb4saUx2NXNW8-20" value="column 2" style="text;html=1;strokeColor=none;fillColor=none;align=left;verticalAlign=middle;whiteSpace=wrap;rounded=0;fontFamily=Comic Sans MS;" vertex="1" parent="1">
          <mxGeometry x="330" y="359" width="60" height="20" as="geometry" />
        </mxCell>
        <mxCell id="AnPcZyOYb4saUx2NXNW8-21" value="column 3" style="text;html=1;strokeColor=none;fillColor=none;align=left;verticalAlign=middle;whiteSpace=wrap;rounded=0;fontFamily=Comic Sans MS;" vertex="1" parent="1">
          <mxGeometry x="390" y="359" width="60" height="20" as="geometry" />
        </mxCell>
        <mxCell id="AnPcZyOYb4saUx2NXNW8-22" value="column ..." style="text;html=1;strokeColor=none;fillColor=none;align=left;verticalAlign=middle;whiteSpace=wrap;rounded=0;fontFamily=Comic Sans MS;" vertex="1" parent="1">
          <mxGeometry x="450" y="359" width="60" height="20" as="geometry" />
        </mxCell>
        <mxCell id="AnPcZyOYb4saUx2NXNW8-23" value="row 2" style="text;html=1;strokeColor=none;fillColor=none;align=left;verticalAlign=middle;whiteSpace=wrap;rounded=0;fontFamily=Comic Sans MS;" vertex="1" parent="1">
          <mxGeometry x="230" y="415" width="40" height="20" as="geometry" />
        </mxCell>
        <mxCell id="AnPcZyOYb4saUx2NXNW8-24" value="row ..." style="text;html=1;strokeColor=none;fillColor=none;align=left;verticalAlign=middle;whiteSpace=wrap;rounded=0;fontFamily=Comic Sans MS;" vertex="1" parent="1">
          <mxGeometry x="230" y="455" width="40" height="20" as="geometry" />
        </mxCell>
      </root>
    </mxGraphModel>
  </diagram>
</mxfile>
